<svg width="64" height="50" viewBox="0 0 64 50" fill="none" xmlns="http://www.w3.org/2000/svg">
<path fill-rule="evenodd" clip-rule="evenodd" d="M25.6338 50C23.4247 50 21.6338 48.2091 21.6338 46V42.0303V35.6804C21.6338 34.2168 20.4597 33.0303 19.0114 33.0303H12.6338H4C1.79087 33.0303 3.8147e-06 31.2394 3.8147e-06 29.0303V13V3.9394C3.8147e-06 1.76373 1.74883 3.8147e-06 3.90611 3.8147e-06H13H51H60.0939C62.2512 3.8147e-06 64 1.76373 64 3.9394V13V37V46.0606C64 48.2363 62.2512 50 60.0939 50H51H25.6338Z" fill="black" fill-opacity="0.01"/>
</svg>
